<svg id="Réteg_1" data-name="Réteg 1" xmlns="http://www.w3.org/2000/svg" viewBox="0 0 199.4 159.15"><defs><style>.cls-1{fill:#d9edf2;}.cls-2{fill:#281617;}.cls-3{fill:#b3dde5;}.cls-4{fill:#77c8d8;}.cls-5{fill:#45d0cf;}.cls-6{fill:#f2b73e;}.cls-7{fill:#f3d97f;}.cls-8{fill:#161713;}.cls-9{fill:#e8d5b7;}.cls-10{fill:#afbddc;}.cls-11{fill:#d0dae9;}.cls-12{fill:#143f59;}.cls-13{fill:#e1c49b;}.cls-14{fill:#1a4866;}.cls-15{fill:#009dc3;}.cls-16,.cls-17{fill:none;stroke:#fff;stroke-miterlimit:10;}.cls-16{stroke-width:1.32px;}.cls-17{stroke-width:1.3px;}.cls-18{fill:#fff;}</style></defs><path class="cls-1" d="M713.86,444.52s16.21,6.56,59.51,3.9,80.54-12.77,47.92-21.93S781.5,413.8,732.8,414.2s-125.45,10.78-89,16.94S695.92,435.68,713.86,444.52Z" transform="translate(-634.29 -289.9)"/><path class="cls-2" d="M807.48,386.2v-92a4.33,4.33,0,0,0-4.33-4.33H653.81a4.34,4.34,0,0,0-4.33,4.33v92Z" transform="translate(-634.29 -289.9)"/><path class="cls-3" d="M649.18,386.37v13.3a4.63,4.63,0,0,0,4.63,4.63H803.15a4.63,4.63,0,0,0,4.64-4.63v-13.3Z" transform="translate(-634.29 -289.9)"/><path class="cls-3" d="M755.8,423.89s-1.15-.57-2.47-1.06-3.1-1.2-4.1-1.68c-1.75-.83-1.9-1.38-2.55-4.25-.71-3.12-1.38-9.72-1.65-12.6H711.94c-.27,2.88-.94,9.48-1.65,12.6-.65,2.87-.8,3.42-2.55,4.25-1,.48-2.66,1.13-4,1.66h0c-1.35.51-2.44.9-2.44.9s-1.06.59.64.67h53.19C756.69,424.41,755.8,423.89,755.8,423.89Z" transform="translate(-634.29 -289.9)"/><path class="cls-4" d="M745.38,407.78c-.15-1.37-.27-2.6-.35-3.48H711.94c-.08.88-.2,2.11-.35,3.48Z" transform="translate(-634.29 -289.9)"/><rect class="cls-5" x="22.54" y="7.42" width="143.31" height="80.7"/><rect class="cls-6" x="807.28" y="329" width="11.49" height="4.09" transform="translate(-592.94 459.61) rotate(-50.63)"/><rect class="cls-6" x="799.78" y="304.34" width="4.09" height="44.61" transform="translate(-593.64 449.34) rotate(-50.62)"/><rect class="cls-6" x="811.93" y="330.17" width="7.85" height="8.94" transform="matrix(0.63, -0.77, 0.77, 0.63, -594.67, 463.14)"/><path class="cls-6" d="M768.66,314.79l6.91,5.67a3.57,3.57,0,0,0,5-.5l10.53-12.83a3.58,3.58,0,0,0-.49-5l-6.91-5.67a3.58,3.58,0,0,0-5,.49l-10.53,12.84A3.57,3.57,0,0,0,768.66,314.79Zm12.87-14.88,6.12,5L777.77,317l-6.13-5Z" transform="translate(-634.29 -289.9)"/><path class="cls-7" d="M790.06,303.61a2.54,2.54,0,0,1,.35,3.59L779.88,320a2.55,2.55,0,0,1-3.59.36l-6.91-5.67a2.57,2.57,0,0,1-.36-3.6l10.53-12.83a2.56,2.56,0,0,1,3.6-.35Zm-.9,1.9-7.7-6.32-11.18,13.62,7.7,6.32Z" transform="translate(-634.29 -289.9)"/><rect class="cls-6" x="812.61" y="333.38" width="11.49" height="4.09" transform="translate(-594.37 465.34) rotate(-50.63)"/><rect class="cls-7" x="816.74" y="333.46" width="7.41" height="2.04" transform="translate(-592.88 466.61) rotate(-50.63)"/><rect class="cls-7" x="811.41" y="329.09" width="7.41" height="2.04" transform="translate(-591.43 460.93) rotate(-50.63)"/><rect class="cls-7" x="800.16" y="305.13" width="2.04" height="44.61" transform="translate(-594.44 449.2) rotate(-50.63)"/><path class="cls-8" d="M790.43,374.51l0,1.35.14,1.12.41.35.33.13.08.2,1.08.88a2,2,0,0,0,1.29.21c.18,0,0-.55-.08-.63a9.34,9.34,0,0,0-.83-1l-.8-1.2-.88-1.5Z" transform="translate(-634.29 -289.9)"/><path class="cls-8" d="M779.85,375.77l.24.56.09.62-.11.95-.53,0-.38-.12-.27.15a19.45,19.45,0,0,1-2,.11c-.91-.06-1.4-.2-1.57-.39s.36-.26.5-.27a5.61,5.61,0,0,0,1.73-.48l.74-.69.18-.52Z" transform="translate(-634.29 -289.9)"/><path class="cls-9" d="M779,327.59l.55-6.7s1.85,4.7,1.24,6.76S779,327.59,779,327.59Z" transform="translate(-634.29 -289.9)"/><polygon class="cls-10" points="150.29 43.62 147.22 39.55 147.03 38.19 147.37 38.24 147.01 36.91 144.4 36.88 144.19 38.99 144.55 39.07 144.6 40.31 145.08 40.63 146.83 46.68 150.29 43.62"/><path class="cls-11" d="M790.5,334.17l-6.59-1.43s-5.68.83-5.82,12.39c0,.05,8.68,2.84,8.72.65C786.91,340.32,790.5,334.17,790.5,334.17Z" transform="translate(-634.29 -289.9)"/><path class="cls-9" d="M795.85,331.77l5.48-3.09s-3,4.23-4.36,4.95S795.85,331.77,795.85,331.77Z" transform="translate(-634.29 -289.9)"/><polygon class="cls-11" points="154.34 44.48 160.42 41.66 160.28 41.41 161.8 41.05 163.65 43.65 161.98 44.72 161.76 44.27 161.33 43.62 161.68 44.41 160.09 45.86 158.75 46 153.74 49.49 154.34 44.48"/><polygon class="cls-12" points="152.56 55.75 158.14 86.02 156 85.92 152.82 76.15 152.11 73.22 148.32 61.66 147.97 55.48 152.56 55.75"/><polygon class="cls-12" points="145.95 86 146.56 73.8 147.64 68.29 149.05 60.71 148.59 55.5 143.88 55.19 144 63.9 143.43 71.73 143.3 74.69 143.4 86.41 145.95 86"/><path class="cls-9" d="M800.28,329.37s-.34-1.09-.16-1.36.93-1.21.93-1.21l.21-.22s.38.09-.13.72-.09.45-.09.45l.68-.4.87-.42.36-.23s.19-.15.27-.15.13.18.13.18l-1.32,1,1.48-.63s.2,0,.26.05,0,.11,0,.11l-1.51,1.1.81-.24s.2,0,.26,0l.09.12-2.95,1.33Z" transform="translate(-634.29 -289.9)"/><path class="cls-9" d="M802.23,328l1.07-.38a1,1,0,0,1,.37-.1.15.15,0,0,1,.15.16l-1.56.73Z" transform="translate(-634.29 -289.9)"/><path class="cls-9" d="M779.8,322.32s.94-.65,1-1,0-1.53,0-1.53l0-.3s-.36-.16-.35.64-.21.42-.21.42l-.28-.73-.43-.87-.14-.41a.85.85,0,0,0-.12-.28c-.18-.12-.21.06-.21.06l.4,1.63-.78-1.41s-.13-.16-.23-.13-.07.09-.07.09l.51,1.79-.48-.68s-.14-.15-.24-.13l-.14,0,1.51,2.87Z" transform="translate(-634.29 -289.9)"/><path class="cls-9" d="M779.12,320l-.61-1a1,1,0,0,0-.23-.31.16.16,0,0,0-.22,0l.78,1.53Z" transform="translate(-634.29 -289.9)"/><path class="cls-9" d="M786,331.19a11.4,11.4,0,0,0-.47,2.34c.17.72,2.15.57,2.18.15a11.09,11.09,0,0,1,.89-2.32C788.73,331.13,786.19,330.32,786,331.19Z" transform="translate(-634.29 -289.9)"/><path class="cls-13" d="M787.24,330.83a5.17,5.17,0,0,1,1.18.37c-.24.42-.49.82-.67,1.08a2.36,2.36,0,0,1-1.83.8,1,1,0,0,1-.38,0c0-.26.16-.81.43-1.87C786.07,330.79,786.65,330.75,787.24,330.83Z" transform="translate(-634.29 -289.9)"/><path class="cls-9" d="M786.94,327.21l-2.05,3.54s-.49.84-.24,1.15a2.51,2.51,0,0,0,1.67.67,2.37,2.37,0,0,0,1.83-.81c.52-.71,1.5-2.58,1.5-2.58s.09-.75-1.24-1S786.94,327.21,786.94,327.21Z" transform="translate(-634.29 -289.9)"/><path class="cls-14" d="M787.56,326.42a.77.77,0,0,0-.72.15.84.84,0,0,0,0,1,11.57,11.57,0,0,0,1.94,1.12,1.35,1.35,0,0,0,1,0c.21-.13-.13-.87-.53-1C788.19,327.45,788.23,326.6,787.56,326.42Z" transform="translate(-634.29 -289.9)"/><path class="cls-14" d="M789.33,328.45l-.89,1.53-.35.88.18.1.33.19s1.76-1.78,1.39-2.32S789.43,328.35,789.33,328.45Z" transform="translate(-634.29 -289.9)"/><path class="cls-9" d="M788.2,331.12a.27.27,0,0,0,.1.38l.14.08a.27.27,0,0,0,.38-.1l.33-.56a.29.29,0,0,0-.1-.38l-.14-.08a.28.28,0,0,0-.38.1Z" transform="translate(-634.29 -289.9)"/><path class="cls-15" d="M785.71,333.88a21,21,0,0,0-5,9.59,1.31,1.31,0,0,0,.24.87l.78-.41A79.5,79.5,0,0,1,785.71,333.88Z" transform="translate(-634.29 -289.9)"/><polygon class="cls-10" points="151.47 43.95 151.31 44.89 153.46 43.97 153.4 43.71 151.47 43.95"/><polygon class="cls-10" points="151.2 43.34 150.58 44.3 151.46 43.93 151.2 43.34"/><path class="cls-16" d="M741.57,344.57v-8.95a1.2,1.2,0,0,0-1.18-1.21H716.58a1.2,1.2,0,0,0-1.18,1.21v11.82a6.74,6.74,0,0,0,6.66,6.83H734.9a6.74,6.74,0,0,0,6.67-6.83v-2.87Z" transform="translate(-634.29 -289.9)"/><path class="cls-17" d="M737.85,331.35v-2.7a9.36,9.36,0,0,0-9.37-9.36h0a9.36,9.36,0,0,0-9.36,9.36v2.7" transform="translate(-634.29 -289.9)"/><path class="cls-17" d="M733.83,331.28V329.5c0-3.43-2.39-6.21-5.35-6.21h0c-3,0-5.34,2.78-5.34,6.21v1.78" transform="translate(-634.29 -289.9)"/><rect class="cls-18" x="93.17" y="52.2" width="2.04" height="5.88" rx="1.02"/><circle class="cls-18" cx="94.19" cy="52.02" r="1.93"/></svg>